<?xml version="1.0" encoding="UTF-8"?>
<svg width="61px" height="61px" viewBox="0 0 61 61" preserveAspectRatio="xMinYMid" version="1.1" xmlns="http://www.w3.org/2000/svg" xmlns:xlink="http://www.w3.org/1999/xlink">
    <!-- Generator: Sketch 52.4 (67378) - http://www.bohemiancoding.com/sketch -->
    <title>customize bug</title>
    <desc>Created with Sketch.</desc>
    <defs>
        <polygon id="path-1" points="0 0.986 8.1448 0.986 8.1448 9.447 0 9.447"></polygon>
        <polygon id="path-3" points="0.4969 0 8.9169 0 8.9169 7.9479 0.4969 7.9479"></polygon>
    </defs>
    <g id="customize-bug" stroke="none" stroke-width="1" fill="none" fill-rule="evenodd">
        <g id="Group-41" transform="translate(7.000000, 7.000000)">
            <path d="M13.1639,35.3857 L8.0899,41.1487 C10.2119,43.0657 12.6839,44.6047 15.4059,45.6497 L18.0959,38.4467 C16.2589,37.7317 14.5919,36.6907 13.1639,35.3857" id="Fill-1" fill="#80619E"></path>
            <path d="M23.4999,39.331 C21.5839,39.331 19.7549,38.974 18.0549,38.35 L15.5059,45.603 C18.0019,46.506 20.6929,47 23.4999,47 C23.6719,47 23.8419,46.991 24.0129,46.987 L23.8069,39.315 C23.7029,39.317 23.6039,39.331 23.4999,39.331" id="Fill-3" fill="#CCBEE3"></path>
            <path d="M9.4891,30.8584 L2.7641,34.5614 C4.1251,37.1064 5.9411,39.3684 8.1031,41.2454 L13.0651,35.3844 C11.6151,34.1104 10.3961,32.5824 9.4891,30.8584" id="Fill-5" fill="#D1D1D1"></path>
            <g id="Group-9" transform="translate(0.000000, 17.000000)">
                <mask id="mask-2" fill="white">
                    <use xlink:href="#path-1"></use>
                </mask>
                <g id="Clip-8"></g>
                <path d="M7.6688,6.5 C7.6688,5.19 7.8458,3.926 8.1448,2.709 L0.6568,0.986 C0.2318,2.756 -0.0002,4.601 -0.0002,6.5 C-0.0002,7.499 0.0688,8.48 0.1898,9.447 L7.7908,8.386 C7.7178,7.767 7.6688,7.14 7.6688,6.5" id="Fill-7" fill="#FDE153" mask="url(#mask-2)"></path>
            </g>
            <path d="M7.7909,25.3857 L0.1899,26.4477 C0.5539,29.3497 1.4419,32.0877 2.7649,34.5617 L9.4889,30.8587 C8.6099,29.1877 8.0239,27.3417 7.7909,25.3857" id="Fill-10" fill="#CB9838"></path>
            <path d="M44.7538,33.5303 L37.8328,30.1903 C36.9968,31.9783 35.8428,33.5843 34.4338,34.9313 L39.6998,40.5143 C41.7858,38.5283 43.5088,36.1653 44.7538,33.5303" id="Fill-12" fill="#C93053"></path>
            <path d="M29.536,38.1338 L32.465,45.2258 C35.168,44.1088 37.615,42.5008 39.7,40.5148 L34.433,34.9318 C33.022,36.2808 31.369,37.3768 29.536,38.1338" id="Fill-14" fill="#D374AA"></path>
            <path d="M23.8065,39.3154 L24.0125,46.9874 C27.0005,46.9224 29.8515,46.3044 32.4645,45.2254 L29.5355,38.1334 C27.7645,38.8644 25.8315,39.2774 23.8065,39.3154" id="Fill-16" fill="#E8BAD6"></path>
            <path d="M31.6991,9.9765 L35.7921,3.4705 C33.4141,2.0075 30.7561,0.9605 27.9171,0.4205 L26.4161,7.9485 C28.3211,8.3035 30.0991,9.0045 31.6991,9.9765" id="Fill-18" fill="#1A8ABE"></path>
            <path d="M38.6288,18.8281 L45.9998,16.7101 C45.1628,13.9341 43.8258,11.3771 42.0958,9.1401 L35.9578,13.7531 C37.1328,15.2531 38.0538,16.9631 38.6288,18.8281" id="Fill-20" fill="#AFB1B3"></path>
            <path d="M35.9579,13.7529 L42.0959,9.1399 C40.3559,6.8909 38.2229,4.9649 35.7919,3.4709 L31.6989,9.9769 C33.3379,10.9719 34.7799,12.2499 35.9579,13.7529" id="Fill-22" fill="#889198"></path>
            <path d="M37.8329,30.1904 L44.7539,33.5304 C45.9609,30.9784 46.7169,28.1724 46.9309,25.2164 L39.2769,24.5654 C39.1449,26.5664 38.6419,28.4614 37.8329,30.1904" id="Fill-24" fill="#FF692E"></path>
            <path d="M39.3309,23.5 C39.3309,23.859 39.3009,24.212 39.2769,24.565 L46.9309,25.217 C46.9719,24.649 46.9999,24.078 46.9999,23.5 C46.9999,21.139 46.6469,18.86 45.9999,16.71 L38.6289,18.828 C39.0839,20.305 39.3309,21.873 39.3309,23.5" id="Fill-26" fill="#EBEBEB"></path>
            <g id="Group-30" transform="translate(19.000000, 0.000000)">
                <mask id="mask-4" fill="white">
                    <use xlink:href="#path-3"></use>
                </mask>
                <g id="Clip-29"></g>
                <path d="M4.4999,7.6689 C5.4979,7.6689 6.4699,7.7729 7.4159,7.9479 L8.9169,0.4209 C7.4859,0.1479 6.0109,-0.0001 4.4999,-0.0001 C3.1349,-0.0001 1.7989,0.1229 0.4969,0.3469 L1.7799,7.9189 C2.6659,7.7649 3.5709,7.6689 4.4999,7.6689" id="Fill-28" fill="#9ED7EA" mask="url(#mask-4)"></path>
            </g>
            <path d="M15.4999,9.8555 L11.5989,3.2385 C9.1559,4.6765 6.9969,6.5415 5.2249,8.7325 L11.2199,13.5155 C12.4109,12.0515 13.8639,10.8165 15.4999,9.8555" id="Fill-31" fill="#7FC564"></path>
            <path d="M20.7802,7.9189 L19.4972,0.3469 C16.6572,0.8339 13.9922,1.8289 11.5982,3.2379 L15.5002,9.8559 C17.1022,8.9139 18.8822,8.2479 20.7802,7.9189" id="Fill-33" fill="#60C9BA"></path>
            <path d="M11.2196,13.5156 L5.2246,8.7326 C3.0676,11.3986 1.4846,14.5446 0.6566,17.9866 L8.1446,19.7086 C8.7116,17.4066 9.7686,15.2976 11.2196,13.5156" id="Fill-35" fill="#D2E02B"></path>
            <path d="M23.4999,12 C29.8519,12 34.9999,17.148 34.9999,23.5 C34.9999,29.852 29.8519,35 23.4999,35 C17.1479,35 11.9999,29.852 11.9999,23.5 C11.9999,17.148 17.1479,12 23.4999,12" id="Fill-37" fill="#E5408E"></path>
            <path d="M17.7499,18.7842 L17.7499,20.8972 C17.7499,20.8972 18.2819,20.9222 18.2819,21.6332 L18.2819,25.1772 C18.2819,25.1772 18.3899,25.6182 17.7499,25.8272 L17.7499,27.3332 L20.8069,27.3332 L20.8069,25.8612 C20.8069,25.8612 20.1959,25.7062 20.1959,25.2642 L20.1959,21.4622 C20.1959,21.4622 20.1689,20.7082 21.2579,20.7082 C22.3469,20.7082 22.4019,21.2532 22.4019,21.6422 L22.4019,27.2872 L25.2179,27.2872 L25.2179,25.7772 C25.2179,25.7772 24.5269,25.7532 24.5269,25.2602 L24.5269,21.5372 C24.5269,21.5372 24.4999,20.7322 25.5309,20.7322 C26.5629,20.7322 26.7409,21.0712 26.7409,21.6942 L26.7409,27.3062 L29.2499,27.3062 L29.2499,25.7482 C29.2499,25.7482 28.6379,25.7722 28.6379,25.2582 L28.6379,20.8412 C28.6379,20.8412 28.7709,18.7082 25.9279,18.7082 C24.1459,18.7082 23.6169,19.4442 23.6169,19.4442 C23.6169,19.4442 22.3399,18.0412 20.3539,19.2632 L20.3539,18.7842 L17.7499,18.7842 Z" id="Fill-39" fill="#FFFFFF"></path>
        </g>
    </g>
</svg>