<?xml version="1.0" encoding="utf-8"?>
<!-- Generator: Adobe Illustrator 22.1.0, SVG Export Plug-In . SVG Version: 6.00 Build 0)  -->
<svg version="1.1" id="Layer_1" xmlns="http://www.w3.org/2000/svg" xmlns:xlink="http://www.w3.org/1999/xlink" x="0px" y="0px"
	 viewBox="0 0 22 22" style="enable-background:new 0 0 22 22;" xml:space="preserve">
<style type="text/css">
	.st0{fill:#AEAEAE;}
</style>
<title></title>
<desc>Created with Sketch.</desc>
<path class="st0" d="M21.2,19l-5.8-5.8c0.5-0.6,0.8-1.3,1.1-2.1c0.3-0.9,0.5-1.9,0.5-2.9c0-1.1-0.2-2.2-0.7-3.2
	c-0.4-1-1-1.9-1.8-2.6C13.9,1.6,13,1,12,0.6c-2-0.9-4.5-0.9-6.5,0c-1,0.4-1.9,1-2.6,1.8C2.1,3.1,1.5,4,1.1,5C0.7,6,0.4,7.1,0.4,8.2
	s0.2,2.2,0.6,3.2c0.4,1,1,1.9,1.8,2.6c0.8,0.7,1.6,1.3,2.6,1.8c1.9,0.8,4.3,0.9,6.2,0.1c0.8-0.3,1.5-0.7,2.1-1.2l5.7,5.8
	c0.2,0.2,0.5,0.3,0.8,0.3c0.3,0,0.6-0.1,0.8-0.3c0.2-0.2,0.3-0.5,0.3-0.8S21.4,19.2,21.2,19z M14.3,10.6C14,11.3,13.6,12,13,12.5
	c-0.5,0.6-1.2,1-1.9,1.3c-1.5,0.6-3.3,0.6-4.7,0c-0.7-0.3-1.4-0.8-1.9-1.3c-0.5-0.6-1-1.2-1.3-1.9C2.8,9.9,2.7,9.1,2.7,8.2
	s0.2-1.6,0.5-2.4c0.3-0.7,0.8-1.4,1.3-1.9C5,3.4,5.6,3,6.4,2.6c0.7-0.3,1.5-0.5,2.4-0.5c0.8,0,1.6,0.2,2.4,0.5
	C11.8,3,12.5,3.4,13,3.9c0.5,0.6,1,1.2,1.3,1.9c0.3,0.7,0.5,1.5,0.5,2.4S14.7,9.9,14.3,10.6z"/>
</svg>
