<?xml version="1.0" encoding="UTF-8"?>
<svg width="18px" height="23px" viewBox="0 0 18 23" version="1.1" xmlns="http://www.w3.org/2000/svg" xmlns:xlink="http://www.w3.org/1999/xlink">
    <!-- Generator: Sketch 51.3 (57544) - http://www.bohemiancoding.com/sketch -->
    <title>Fill 1</title>
    <desc>Created with Sketch.</desc>
    <defs></defs>
    <g id="Symbols" stroke="none" stroke-width="1" fill="none" fill-rule="evenodd">
        <g id="Desktop-Nav" transform="translate(-16.000000, -10.000000)" fill="#AEAEAE" stroke="#AEAEAE" stroke-width="0.75">
            <g id="Page-1" transform="translate(14.000000, 8.000000)">
                <path d="M14.3544324,11.1951214 C14.78509,11.1951214 15.1285322,11.5359872 15.1285322,11.963414 C15.1285322,12.3908408 14.78509,12.7317067 14.3544324,12.7317067 C13.9237749,12.7317067 13.5803326,12.3908408 13.5803326,11.963414 C13.5803326,11.5359872 13.9237749,11.1951214 14.3544324,11.1951214 Z M7.64556756,11.1951214 C8.07622508,11.1951214 8.41966736,11.5359872 8.41966736,11.963414 C8.41966736,12.3908408 8.07622508,12.7317067 7.64556756,12.7317067 C7.21491005,12.7317067 6.87146777,12.3908408 6.87146777,11.963414 C6.87146777,11.5359872 7.21491005,11.1951214 7.64556756,11.1951214 Z M4.79094556,8.63414596 L7.3875343,8.63414596 L7.3875343,10.7069995 C6.80102469,10.8268531 6.35540124,11.3472433 6.35540124,11.963414 C6.35540124,12.6676823 6.93597609,13.2439017 7.64556756,13.2439017 C8.35515904,13.2439017 8.93573389,12.6676823 8.93573389,11.963414 C8.93573389,11.3472433 8.49011044,10.8268531 7.90360083,10.7069995 L7.90360083,8.63414596 L14.0963992,8.63414596 L14.0963992,10.7069995 C13.5098896,10.8268531 13.0642661,11.3472433 13.0642661,11.963414 C13.0642661,12.6676823 13.644841,13.2439017 14.3544324,13.2439017 C15.0640239,13.2439017 15.6445988,12.6676823 15.6445988,11.963414 C15.6445988,11.3472433 15.1989753,10.8268531 14.6124657,10.7069995 L14.6124657,8.63414596 L17.2090544,8.63414596 L18.4587095,23.4878035 L3.54129046,23.4878035 L4.79094556,8.63414596 Z M11,3.51219509 C12.7197917,3.51219509 14.0963992,4.87847548 14.0963992,6.58536561 L14.0963992,8.12195087 L7.90360083,8.12195087 L7.90360083,6.58536561 C7.90360083,4.87847548 9.28020829,3.51219509 11,3.51219509 Z M11,3 C9.00308057,3 7.3875343,4.60342672 7.3875343,6.58536561 L7.3875343,8.12195087 L4.54916839,8.12195087 C4.3886717,8.12451185 4.30584302,8.23565818 4.29113513,8.35397525 L3.00096881,23.7198279 C2.98755108,23.8617059 3.11553557,24.0005108 3.25900207,23.9999986 L18.7409979,23.9999986 C18.8844644,23.9999986 19.0124489,23.8617059 18.9990312,23.7198279 L17.7088649,8.35397525 C17.6969953,8.22823136 17.5783,8.12143868 17.4508316,8.12195087 L14.6124657,8.12195087 L14.6124657,6.58536561 C14.6124657,4.60342672 12.9969194,3 11,3 Z" id="Fill-1"></path>
            </g>
        </g>
    </g>
</svg>